<svg xmlns="http://www.w3.org/2000/svg" width="805.422" height="799.599" viewBox="0 0 805.422 799.599" fill="#7b68ee">
  <path d="M 310.968 7.244 C 320.633 -2.415 336.329 -2.415 346.032 7.244 L 440.959 102.114 C 456.581 117.726 483.253 106.682 483.253 84.593 L 483.253 25.589 C 483.253 11.924 494.342 0.805 508.015 0.805 L 557.577 0.805 C 571.25 0.805 582.376 11.887 582.376 25.589 L 582.376 82.085 C 582.376 104.173 609.161 115.218 624.745 99.531 L 699.069 24.803 C 708.734 15.107 724.393 15.069 734.133 24.691 L 769.272 59.621 C 778.974 69.281 779.012 84.93 769.384 94.664 L 701.504 162.915 C 685.957 178.527 697.046 205.146 719.073 205.146 L 779.199 205.146 C 793.697 205.146 805.422 216.902 805.422 231.353 L 805.422 279.462 C 805.422 293.127 794.333 304.246 780.623 304.246 L 703.002 304.246 C 680.938 304.246 669.849 330.94 685.47 346.515 L 785.717 446.701 C 795.382 456.36 795.382 472.047 785.717 481.744 L 750.653 516.749 C 740.988 526.408 725.292 526.408 715.589 516.749 L 624.633 425.848 C 609.012 410.236 582.339 421.28 582.339 443.369 L 582.339 774.815 C 582.339 788.48 571.25 799.599 557.539 799.599 L 507.978 799.599 C 494.304 799.599 483.178 788.517 483.178 774.815 L 483.178 442.396 C 483.178 420.307 456.431 409.262 440.809 424.949 L 87.96 779.794 C 78.295 789.491 62.636 789.528 52.896 779.907 L 17.757 744.976 C 8.054 735.317 8.017 719.667 17.644 709.933 L 379.185 346.477 C 394.732 330.865 383.643 304.246 361.616 304.246 L 24.8 304.246 C 11.089 304.246 0 293.127 0 279.462 L 0 229.93 C 0 216.265 11.089 205.146 24.8 205.146 L 133.176 205.146 L 344.009 205.146 C 366.074 205.146 377.162 178.452 361.541 162.878 L 275.904 77.292 C 266.239 67.633 266.239 51.946 275.904 42.25 L 310.968 7.244 Z M 483.516 147.602 C 472.802 147.602 462.912 153.293 457.555 162.578 L 408.255 247.901 C 402.898 257.186 402.898 268.567 408.255 277.852 L 457.555 363.175 C 462.912 372.46 472.802 378.151 483.516 378.151 L 582.114 378.151 C 592.828 378.151 602.718 372.423 608.075 363.175 L 657.374 277.852 C 662.731 268.567 662.731 257.148 657.374 247.901 L 608.075 162.578 C 602.718 153.293 592.828 147.602 582.114 147.602 L 483.516 147.602 Z" fill="currentColor" fill-rule="nonzero"></path>
</svg>