<svg xmlns="http://www.w3.org/2000/svg" width="150" height="24" viewBox="0 0 150 24" fill="none">
  <g clip-path="url(#clip0_497_6511)">
    <path fill-rule="evenodd" clip-rule="evenodd" d="M127.378 7.20209C128.014 7.19722 128.65 7.19059 129.287 7.18335H127.554C127.493 7.18335 127.435 7.18985 127.378 7.20209Z" fill="#334155"/>
    <path fill-rule="evenodd" clip-rule="evenodd" d="M104.733 20.1293C104.693 20.1195 104.652 20.1143 104.609 20.1143L104.537 20.1138L104.733 20.1293Z" fill="#334155"/>
    <path d="M15.024 20.8395V23.0818C15.024 23.4462 14.6937 23.7413 14.2858 23.7413H9.26543C8.25953 23.7413 7.44557 23.7297 6.85125 23.7083C6.2477 23.6622 5.50388 23.5237 4.62348 23.2995L4.60318 23.2945C3.70802 23.0422 2.93098 22.6647 2.30344 22.1751C1.33629 21.3804 0.703212 20.4258 0.415284 19.3327C0.140273 18.256 0 16.9882 0 15.5637V0.659481C0 0.295118 0.330381 0 0.738282 0H3.46992C3.87782 0 4.2082 0.295118 4.2082 0.659481V15.4978C4.2082 16.7228 4.35955 17.6906 4.6604 18.3731L4.71577 18.4852C5.0037 19.0326 5.41898 19.4366 5.98562 19.7201C6.59654 20.0251 7.3902 20.1801 8.34258 20.1801H14.2858C14.6937 20.1801 15.024 20.4769 15.024 20.8395Z" fill="#334155"/>
    <path d="M32.8683 7.91388V23.0819C32.8683 23.4463 32.5379 23.7414 32.1301 23.7414H26.113C23.2799 23.7414 21.2939 23.3672 20.037 22.5956C18.9129 21.9179 18.1803 21.0936 17.8609 20.1423C17.5803 19.2091 17.4382 17.9924 17.4382 16.5201V7.91388C17.4382 7.54952 17.7704 7.25439 18.1765 7.25439H20.6867C21.0946 7.25439 21.425 7.54952 21.425 7.91388V16.4871C21.425 16.8696 21.4378 17.2043 21.4619 17.4829L21.4729 17.5752C21.5043 17.8028 21.5837 18.1045 21.7055 18.4689C21.8366 18.8381 22.0229 19.1531 22.2574 19.4037C22.49 19.6279 22.8461 19.8455 23.315 20.045C23.7764 20.2214 24.3597 20.3121 25.0426 20.3121H28.8816V7.91388C28.8816 7.54952 29.2138 7.25439 29.6199 7.25439H32.1301C32.5379 7.25439 32.8683 7.54952 32.8683 7.91388Z" fill="#334155"/>
    <path d="M60.7182 14.179V23.0819C60.7182 23.4463 60.3878 23.7414 59.9799 23.7414H57.4697C57.0637 23.7414 56.7314 23.4463 56.7314 23.0819V14.179C56.7314 12.5813 56.2276 11.5657 55.1922 11.0744C54.9356 10.9492 54.5277 10.8535 53.9795 10.7876C53.4 10.7183 52.6617 10.6837 51.785 10.6837H50.6407V23.0819C50.6407 23.4463 50.3103 23.7414 49.9024 23.7414H47.3922C46.9861 23.7414 46.6539 23.4463 46.6539 23.0819V10.6837H40.9322V23.0819C40.9322 23.4463 40.6018 23.7414 40.1939 23.7414H37.6838C37.2778 23.7414 36.9456 23.4463 36.9456 23.0819V7.91388C36.9456 7.54952 37.2778 7.25439 37.6838 7.25439H53.5937C55.4044 7.25439 56.8735 7.57095 57.9626 8.1958C59.0921 8.82894 59.8396 9.66645 60.1848 10.6837L60.2475 10.8667C60.5613 11.8031 60.7182 12.9161 60.7182 14.179Z" fill="#334155"/>
    <path d="M72.7171 20.9715V23.0818C72.7171 23.2599 72.6377 23.4264 72.4956 23.5517C72.359 23.6721 72.1763 23.738 71.9843 23.738H71.9714C69.3283 23.6967 67.3959 23.1906 66.2294 22.2377C65.0223 21.2287 64.4114 19.5173 64.4114 17.1465V0.659481C64.4114 0.295118 64.7418 0 65.1496 0H67.7337C68.1397 0 68.472 0.295118 68.472 0.659481V17.1465C68.472 17.895 68.5643 18.5116 68.7451 18.9799C68.9315 19.3838 69.2028 19.6739 69.5701 19.857C69.9706 20.035 70.3712 20.1586 70.7495 20.218C71.0707 20.2691 71.4878 20.2988 71.9862 20.3087C72.3885 20.3169 72.7171 20.6137 72.7171 20.9715Z" fill="#334155"/>
    <path fill-rule="evenodd" clip-rule="evenodd" d="M104.365 20.1127L104.537 20.1138C103.968 20.0687 103.373 20.0184 102.741 19.9626C102.797 19.9758 102.852 19.9878 102.906 19.9985L103.043 20.0227C103.373 20.0748 103.812 20.1058 104.365 20.1127Z" fill="#334155"/>
    <path fill-rule="evenodd" clip-rule="evenodd" d="M130.278 7.18409L130.277 7.17188C129.946 7.17579 129.616 7.17971 129.287 7.18346H130.245C130.257 7.18346 130.267 7.18368 130.278 7.18409Z" fill="#334155"/>
    <path fill-rule="evenodd" clip-rule="evenodd" d="M127.378 7.20218C128.014 7.19731 128.65 7.19068 129.287 7.18344H130.245C130.257 7.18344 130.267 7.18365 130.278 7.18407C130.655 7.19866 130.962 7.46639 130.983 7.80605L131.261 12.2385C131.426 14.9322 131.919 17.0178 132.71 18.5279C132.926 18.9429 133.545 18.9666 133.815 18.577C134.114 18.1458 134.369 17.6711 134.579 17.1517C134.796 16.59 134.977 16.1053 135.121 15.6975L135.125 15.6855C135.285 15.2794 135.425 14.7597 135.544 14.1207L135.547 14.1102C135.692 13.4361 135.788 12.9546 135.836 12.6605C135.883 12.3657 135.942 11.8838 136.015 11.2097L136.017 11.1965C136.065 10.8585 136.106 10.5925 136.137 10.3994C136.166 10.2177 136.19 10.0761 136.21 10.0071C136.261 9.82543 136.443 9.69789 136.653 9.69789H140.162C140.372 9.69789 140.555 9.82543 140.606 10.0071C140.627 10.0829 140.648 10.2317 140.671 10.4109C140.695 10.6037 140.726 10.8681 140.763 11.2033C140.811 11.5377 140.853 11.8259 140.889 12.0682L140.98 12.6605C141.028 12.9603 141.113 13.4445 141.234 14.1151C141.376 14.7505 141.516 15.2744 141.656 15.6896C141.826 16.1031 142.02 16.5906 142.238 17.1517C142.42 17.6061 142.638 18.0263 142.89 18.4131L143 18.577C143.27 18.9666 143.888 18.9424 144.106 18.5273C144.896 17.0175 145.389 14.9325 145.555 12.2389L145.833 7.8061C145.854 7.45673 146.178 7.18344 146.569 7.18344H149.262C149.684 7.18344 150.019 7.49817 149.999 7.87427L149.758 12.4112C149.585 15.2962 148.991 17.7459 147.963 19.7424C146.957 21.7426 145.563 23.1657 143.763 23.958C143.608 24.0268 143.421 24.0101 143.284 23.9151C141.561 22.7297 140.336 21.5106 139.653 20.2507L139.523 19.9984C139.208 19.3433 137.609 19.3433 137.292 19.9984C136.641 21.348 135.37 22.6507 133.533 23.9151C133.394 24.0101 133.208 24.0267 133.051 23.958C131.309 23.191 129.937 21.833 128.915 19.9317L128.817 19.7461C127.813 17.75 127.231 15.2991 127.058 12.4134L126.97 10.7585C125.701 10.7325 124.43 10.6954 123.201 10.6523C123.534 11.1033 123.819 11.5869 124.058 12.1025C124.546 13.1355 124.788 14.2455 124.788 15.4284C124.788 16.6097 124.546 17.7284 124.061 18.7801C123.6 19.8077 122.947 20.7133 122.101 21.4923C121.254 22.2713 120.255 22.8885 119.107 23.3443C117.951 23.7804 116.7 23.9998 115.375 23.9999C115.186 23.9999 114.997 23.9955 114.811 23.987C111.028 23.9693 106.913 23.8106 103.698 23.6553C101.465 23.5633 99.7433 23.1187 98.6096 22.2585L98.4885 22.1623C98.4885 22.1623 98.3337 22.0357 98.1683 21.8655C97.1308 20.7971 96.6587 19.1642 96.6577 17.0612V3.70958H92.7167L92.7109 3.68978H89.8332C88.5455 3.6898 87.6648 3.93201 87.1108 4.34588C86.5725 4.74808 86.2692 5.36853 86.2692 6.28583V9.59357C86.2692 9.95777 86.5998 10.2531 87.0075 10.2531H92.33C92.7377 10.2531 93.0683 10.5483 93.0683 10.9125V13.2835C93.0683 13.6477 92.7377 13.943 92.33 13.943H87.0075C86.5998 13.943 86.2692 14.2383 86.2692 14.6025V23.014C86.2692 23.3782 85.9387 23.6735 85.531 23.6735H82.6577C82.2499 23.6735 81.9194 23.3782 81.9194 23.014V5.86143C81.9194 4.15599 82.5304 2.74833 83.7785 1.6809C84.6134 0.98172 85.5664 0.516666 86.6262 0.303657C87.6441 0.099072 88.8741 1.27211e-05 90.3084 0H91.6093H93.902H97.3962H98.0692H100.124C100.532 0 100.862 0.295259 100.862 0.659481V17.0612C100.862 17.8139 100.956 18.4035 101.126 18.8448C101.311 19.2419 101.571 19.507 101.899 19.6715C102.19 19.8013 102.471 19.8977 102.741 19.9626C102.797 19.9758 102.852 19.9878 102.906 19.9984L103.043 20.0227C103.373 20.0747 103.812 20.1057 104.364 20.1127L104.537 20.1138L104.733 20.1293C105.75 20.209 106.683 20.2723 107.585 20.3211C107.266 19.9006 106.988 19.4528 106.75 18.9779L106.657 18.7875L106.652 18.7775C106.191 17.7262 105.963 16.6085 105.963 15.4284C105.963 13.0212 106.858 10.9893 108.653 9.36214C110.448 7.69225 112.7 6.85709 115.375 6.85708C115.488 6.85708 115.601 6.85881 115.713 6.86226L115.696 6.84211C119.684 7.19647 123.536 7.23153 127.378 7.20218ZM115.375 10.4161C113.781 10.4161 112.53 10.8798 111.579 11.7889C110.648 12.7008 110.166 13.9011 110.166 15.4284C110.166 16.9557 110.648 18.1561 111.579 19.0681C112.53 19.9772 113.781 20.4408 115.375 20.4408C116.995 20.4408 118.241 19.9772 119.165 19.0749C120.102 18.1383 120.585 16.9341 120.585 15.4284C120.585 14.0167 120.161 12.8816 119.338 11.9925L119.169 11.818C118.243 10.8931 116.994 10.4162 115.375 10.4161Z" fill="#334155"/>
  </g>
  <defs>
    <clipPath id="clip0_497_6511">
      <rect width="150" height="24" fill="white"/>
    </clipPath>
  </defs>
</svg>