<svg xmlns="http://www.w3.org/2000/svg" width="175" height="28" viewBox="0 0 175 28" fill="none">
  <g clip-path="url(#clip0_248_1243)">
    <path fill-rule="evenodd" clip-rule="evenodd" d="M148.607 8.40248C149.35 8.3968 150.092 8.38907 150.834 8.38062H148.813C148.742 8.38062 148.674 8.3882 148.607 8.40248Z" fill="white"/>
    <path fill-rule="evenodd" clip-rule="evenodd" d="M122.188 23.4842C122.142 23.4728 122.094 23.4667 122.043 23.4667L121.959 23.4661L122.188 23.4842Z" fill="white"/>
    <path d="M17.528 24.3128V26.9288C17.528 27.3539 17.1426 27.6982 16.6667 27.6982H10.8097C9.63612 27.6982 8.6865 27.6847 7.99313 27.6597C7.28899 27.6059 6.4212 27.4443 5.39406 27.1827L5.37038 27.1769C4.32602 26.8826 3.41948 26.4421 2.68735 25.8709C1.559 24.9438 0.820415 23.8301 0.484498 22.5548C0.163652 21.2987 0 19.8196 0 18.1577V0.769394C0 0.344304 0.385444 0 0.861329 0H4.04824C4.52412 0 4.90957 0.344304 4.90957 0.769394V18.0808C4.90957 19.5099 5.08614 20.639 5.43714 21.4353L5.50173 21.5661C5.83765 22.2047 6.32214 22.676 6.98322 23.0068C7.69596 23.3626 8.6219 23.5435 9.73301 23.5435H16.6667C17.1426 23.5435 17.528 23.8897 17.528 24.3128Z" fill="white"/>
    <path d="M38.3465 9.23278V26.9288C38.3465 27.3539 37.9611 27.6982 37.4852 27.6982H30.4653C27.16 27.6982 24.843 27.2617 23.3766 26.3615C22.0652 25.5709 21.2104 24.6091 20.8379 23.4992C20.5105 22.4105 20.3447 20.991 20.3447 19.2733V9.23278C20.3447 8.80769 20.7323 8.46338 21.206 8.46338H24.1346C24.6105 8.46338 24.9959 8.80769 24.9959 9.23278V19.2348C24.9959 19.6811 25.0109 20.0716 25.039 20.3966L25.0519 20.5043C25.0885 20.7698 25.1811 21.1218 25.3233 21.5469C25.4762 21.9777 25.6936 22.3451 25.9671 22.6375C26.2384 22.8991 26.6539 23.153 27.2009 23.3857C27.7393 23.5915 28.4197 23.6973 29.2164 23.6973H33.6953V9.23278C33.6953 8.80769 34.0829 8.46338 34.5566 8.46338H37.4852C37.9611 8.46338 38.3465 8.80769 38.3465 9.23278Z" fill="white"/>
    <path d="M70.8377 16.542V26.9288C70.8377 27.3539 70.4523 27.6982 69.9764 27.6982H67.0478C66.5742 27.6982 66.1865 27.3539 66.1865 26.9288V16.542C66.1865 14.6781 65.5987 13.4932 64.3908 12.92C64.0914 12.7739 63.6155 12.6623 62.976 12.5854C62.2999 12.5046 61.4385 12.4642 60.4157 12.4642H59.0806V26.9288C59.0806 27.3539 58.6952 27.6982 58.2193 27.6982H55.2908C54.817 27.6982 54.4295 27.3539 54.4295 26.9288V12.4642H47.7541V26.9288C47.7541 27.3539 47.3687 27.6982 46.8928 27.6982H43.9643C43.4906 27.6982 43.103 27.3539 43.103 26.9288V9.23278C43.103 8.80769 43.4906 8.46338 43.9643 8.46338H62.5259C64.6383 8.46338 66.3523 8.83269 67.6229 9.56169C68.9407 10.3003 69.8127 11.2774 70.2155 12.4642L70.2886 12.6777C70.6548 13.7702 70.8377 15.0686 70.8377 16.542Z" fill="white"/>
    <path d="M84.8367 24.4667V26.9288C84.8367 27.1365 84.7441 27.3308 84.5783 27.477C84.4189 27.6174 84.2058 27.6943 83.9818 27.6943H83.9667C80.8831 27.6462 78.6287 27.0557 77.2677 25.944C75.8595 24.7668 75.1467 22.7702 75.1467 20.0042V0.769394C75.1467 0.344304 75.5322 0 76.008 0H79.0228C79.4965 0 79.8841 0.344304 79.8841 0.769394V20.0042C79.8841 20.8775 79.9918 21.5969 80.2028 22.1432C80.4202 22.6144 80.7367 22.9529 81.1653 23.1665C81.6325 23.3742 82.0998 23.5184 82.5413 23.5877C82.9159 23.6473 83.4026 23.6819 83.984 23.6935C84.4534 23.7031 84.8367 24.0493 84.8367 24.4667Z" fill="white"/>
    <path fill-rule="evenodd" clip-rule="evenodd" d="M121.759 23.4649L121.959 23.4662C121.296 23.4135 120.602 23.3548 119.865 23.2898C119.93 23.3052 119.994 23.3192 120.057 23.3316L120.217 23.3599C120.602 23.4206 121.114 23.4568 121.759 23.4649Z" fill="white"/>
    <path fill-rule="evenodd" clip-rule="evenodd" d="M151.991 8.38144L151.99 8.36719C151.604 8.37176 151.219 8.37633 150.834 8.38071H151.953C151.966 8.38071 151.978 8.38096 151.991 8.38144Z" fill="white"/>
    <path fill-rule="evenodd" clip-rule="evenodd" d="M148.608 8.40254C149.35 8.39686 150.092 8.38913 150.834 8.38068H151.953C151.966 8.38068 151.979 8.38093 151.991 8.38141C152.431 8.39844 152.789 8.71079 152.813 9.10706L153.137 14.2783C153.33 17.4209 153.906 19.8541 154.828 21.6159C155.08 22.1001 155.803 22.1277 156.118 21.6732C156.467 21.1701 156.764 20.6163 157.009 20.0103C157.262 19.355 157.473 18.7895 157.641 18.3137L157.646 18.2998C157.832 17.826 157.996 17.2196 158.135 16.4742L158.138 16.4619C158.308 15.6754 158.42 15.1137 158.475 14.7706C158.53 14.4266 158.599 13.8644 158.685 13.078L158.687 13.0626C158.743 12.6683 158.79 12.3579 158.826 12.1326C158.861 11.9207 158.889 11.7554 158.911 11.675C158.971 11.463 159.184 11.3142 159.428 11.3142H163.522C163.768 11.3142 163.981 11.463 164.04 11.675C164.065 11.7634 164.09 11.937 164.116 12.1461C164.144 12.371 164.18 12.6795 164.223 13.0705C164.279 13.4606 164.328 13.7969 164.371 14.0796L164.477 14.7706C164.533 15.1203 164.631 15.6852 164.773 16.4676C164.939 17.2089 165.103 17.8201 165.265 18.3045C165.464 18.7869 165.69 19.3557 165.944 20.0103C166.157 20.5405 166.412 21.0307 166.706 21.482L166.833 21.6732C167.149 22.1277 167.87 22.0995 168.123 21.6152C169.046 19.8538 169.621 17.4212 169.814 14.2787L170.138 9.10712C170.163 8.69952 170.541 8.38068 170.998 8.38068H174.139C174.631 8.38068 175.023 8.74786 174.999 9.18665L174.717 14.4797C174.515 17.8456 173.823 20.7035 172.623 23.0328C171.45 25.3664 169.824 27.0266 167.724 27.951C167.542 28.0313 167.325 28.0118 167.164 27.9009C165.154 26.518 163.725 25.0957 162.928 23.6258L162.777 23.3315C162.409 22.5672 160.544 22.5672 160.174 23.3315C159.415 24.906 157.932 26.4258 155.788 27.9009C155.627 28.0118 155.409 28.0312 155.226 27.951C153.194 27.0562 151.593 25.4718 150.401 23.2537L150.287 23.0371C149.116 20.7083 148.436 17.849 148.234 14.4823L148.132 12.5516C146.651 12.5212 145.168 12.478 143.735 12.4277C144.123 12.9538 144.456 13.518 144.734 14.1196C145.304 15.3247 145.587 16.6198 145.587 17.9998C145.587 19.378 145.304 20.6831 144.737 21.9101C144.2 23.109 143.438 24.1655 142.451 25.0744C141.463 25.9832 140.297 26.7033 138.958 27.235C137.61 27.7438 136.15 27.9998 134.604 27.9999C134.383 27.9999 134.163 27.9948 133.946 27.9848C129.533 27.9642 124.731 27.779 120.981 27.5979C118.376 27.4905 116.367 26.9718 115.045 25.9682L114.903 25.856C114.903 25.856 114.723 25.7083 114.53 25.5097C113.319 24.2633 112.769 22.3582 112.767 19.9047V4.32784H108.17L108.163 4.30474H104.805C103.303 4.30477 102.276 4.58734 101.629 5.07019C101.001 5.53943 100.648 6.26328 100.648 7.33347V11.1925C100.648 11.6174 101.033 11.9619 101.509 11.9619H107.718C108.194 11.9619 108.58 12.3063 108.58 12.7313V15.4974C108.58 15.9223 108.194 16.2668 107.718 16.2668H101.509C101.033 16.2668 100.648 16.6113 100.648 17.0362V26.8497C100.648 27.2746 100.262 27.6191 99.7862 27.6191H96.4341C95.9583 27.6191 95.5728 27.2746 95.5728 26.8497V6.83833C95.5728 4.84865 96.2855 3.20639 97.7416 1.96105C98.7157 1.14534 99.8275 0.602777 101.064 0.354267C102.252 0.115584 103.686 1.48413e-05 105.36 0H106.878H109.552H113.629H114.414H116.811C117.287 0 117.672 0.344469 117.672 0.769394V19.9047C117.672 20.7829 117.782 21.4708 117.98 21.9856C118.196 22.4489 118.5 22.7582 118.882 22.9501C119.222 23.1015 119.55 23.214 119.865 23.2897C119.93 23.3051 119.994 23.3191 120.057 23.3315L120.217 23.3598C120.602 23.4205 121.114 23.4567 121.759 23.4648L121.959 23.4661L122.188 23.4842C123.375 23.5772 124.463 23.651 125.515 23.7079C125.144 23.2174 124.819 22.6949 124.542 22.1409L124.433 21.9187L124.427 21.9071C123.89 20.6806 123.623 19.3766 123.623 17.9998C123.623 15.1914 124.667 12.8208 126.762 10.9225C128.856 8.97429 131.483 7.99994 134.604 7.99993C134.737 7.99993 134.868 8.00194 134.999 8.00597L134.979 7.98246C139.631 8.39588 144.125 8.43679 148.608 8.40254ZM134.604 12.1521C132.744 12.1521 131.285 12.6931 130.175 13.7537C129.09 14.8176 128.527 16.218 128.527 17.9998C128.527 19.7817 129.09 21.1821 130.175 22.2461C131.285 23.3067 132.744 23.8476 134.604 23.8476C136.494 23.8476 137.948 23.3067 139.026 22.254C140.119 21.1613 140.682 19.7564 140.682 17.9998C140.682 16.3528 140.187 15.0285 139.228 13.9913L139.031 13.7877C137.951 12.7086 136.493 12.1522 134.604 12.1521Z" fill="white"/>
  </g>
  <defs>
    <clipPath id="clip0_248_1243">
      <rect width="175" height="28" fill="white"/>
    </clipPath>
  </defs>
</svg>