<svg xmlns="http://www.w3.org/2000/svg" viewBox="-16 -16 240 245.57" width="128" height="128">
  <rect x="-16" y="-16" width="240" height="245.57" rx="40" ry="40" fill="white"/>
  <path fill="#111111" d="M83.01,1.94c2.58-2.58,6.77-2.58,9.36,0l25.34,25.34c4.17,4.17,11.29,1.22,11.29-4.68V6.84c0-3.65,2.96-6.62,6.61-6.62h13.23c3.65,0,6.62,2.96,6.62,6.62v15.09c0,5.9,7.15,8.85,11.31,4.66l19.84-19.96c2.58-2.59,6.76-2.6,9.36-.03l9.38,9.33c2.59,2.58,2.6,6.76,.03,9.36l-18.12,18.23c-4.15,4.17-1.19,11.28,4.69,11.28h16.05c3.87,0,7,3.14,7,7v12.85c0,3.65-2.96,6.62-6.62,6.62h-20.72c-5.89,0-8.85,7.13-4.68,11.29l26.76,26.76c2.58,2.58,2.58,6.77,0,9.36l-9.36,9.35c-2.58,2.58-6.77,2.58-9.36,0l-24.28-24.28c-4.17-4.17-11.29-1.22-11.29,4.68v88.53c0,3.65-2.96,6.62-6.62,6.62h-13.23c-3.65,0-6.62-2.96-6.62-6.62V118.17c0-5.9-7.14-8.85-11.31-4.66L23.48,208.29c-2.58,2.59-6.76,2.6-9.36,.03l-9.38-9.33c-2.59-2.58-2.6-6.76-.03-9.36L101.22,92.55c4.15-4.17,1.19-11.28-4.69-11.28H6.62C2.96,81.27,0,78.3,0,74.65v-13.23c0-3.65,2.96-6.62,6.62-6.62h28.93s0,0,0,0c0,0,0,0,0,0h56.28c5.89,0,8.85-7.13,4.68-11.29l-22.86-22.86c-2.58-2.58-2.58-6.77,0-9.36L83.01,1.94Zm46.06,37.49c-2.86,0-5.5,1.52-6.93,4l-13.16,22.79c-1.43,2.48-1.43,5.52,0,8l13.16,22.79c1.43,2.48,4.07,4,6.93,4h26.32c2.86,0,5.5-1.53,6.93-4l13.16-22.79c1.43-2.48,1.43-5.53,0-8l-13.16-22.79c-1.43-2.48-4.07-4-6.93-4h-26.32Z"/>
</svg>
