<svg width="120" height="40" viewBox="0 0 120 40" fill="none" xmlns="http://www.w3.org/2000/svg">
<g clip-path="url(#clip0_706_22489)">
<path d="M61.2054 23.6737V26.2209C61.2054 26.6348 60.8687 26.9701 60.453 26.9701H55.3368C54.3117 26.9701 53.4822 26.957 52.8766 26.9326C52.2615 26.8802 51.5035 26.7229 50.6063 26.4681L50.5856 26.4625C49.6733 26.176 48.8815 25.7471 48.2419 25.1908C47.2563 24.2881 46.6112 23.2036 46.3177 21.9619C46.0375 20.7389 45.8945 19.2986 45.8945 17.6804V0.749169C45.8945 0.335253 46.2312 0 46.6469 0H49.4307C49.8464 0 50.1831 0.335253 50.1831 0.749169V17.6055C50.1831 18.997 50.3373 20.0965 50.6439 20.8718L50.7003 20.9992C50.9937 21.621 51.417 22.0799 51.9944 22.402C52.617 22.7485 53.4258 22.9246 54.3964 22.9246H60.453C60.8687 22.9246 61.2054 23.2617 61.2054 23.6737Z" fill="white"/>
<path d="M79.3906 8.99038V26.2213C79.3906 26.6352 79.054 26.9704 78.6383 26.9704H72.5064C69.6192 26.9704 67.5953 26.5453 66.3144 25.6688C65.1689 24.899 64.4221 23.9625 64.0967 22.8818C63.8108 21.8218 63.666 20.4396 63.666 18.767V8.99038C63.666 8.57646 64.0046 8.24121 64.4184 8.24121H66.9765C67.3921 8.24121 67.7288 8.57646 67.7288 8.99038V18.7296C67.7288 19.1641 67.742 19.5443 67.7665 19.8608L67.7777 19.9657C67.8097 20.2242 67.8906 20.5669 68.0147 20.9808C68.1483 21.4004 68.3383 21.7581 68.5771 22.0428C68.8141 22.2975 69.1772 22.5447 69.6549 22.7713C70.1252 22.9717 70.7195 23.0748 71.4155 23.0748H75.3278V8.99038C75.3278 8.57646 75.6664 8.24121 76.0802 8.24121H78.6383C79.054 8.24121 79.3906 8.57646 79.3906 8.99038Z" fill="white"/>
<path d="M107.771 16.1075V26.2213C107.771 26.6352 107.435 26.9704 107.019 26.9704H104.461C104.047 26.9704 103.709 26.6352 103.709 26.2213V16.1075C103.709 14.2926 103.195 13.1389 102.14 12.5808C101.878 12.4384 101.463 12.3298 100.904 12.2549C100.313 12.1762 99.5611 12.1369 98.6677 12.1369H97.5015V26.2213C97.5015 26.6352 97.1648 26.9704 96.7491 26.9704H94.191C93.7772 26.9704 93.4386 26.6352 93.4386 26.2213V12.1369H87.6077V26.2213C87.6077 26.6352 87.2711 26.9704 86.8554 26.9704H84.2973C83.8835 26.9704 83.5449 26.6352 83.5449 26.2213V8.99038C83.5449 8.57646 83.8835 8.24121 84.2973 8.24121H100.511C102.356 8.24121 103.853 8.60081 104.963 9.31065C106.114 10.0299 106.876 10.9813 107.228 12.1369L107.292 12.3448C107.612 13.4086 107.771 14.6728 107.771 16.1075Z" fill="white"/>
<path d="M119.999 23.8236V26.2209C119.999 26.4232 119.919 26.6124 119.774 26.7547C119.634 26.8914 119.448 26.9663 119.253 26.9663H119.239C116.546 26.9195 114.577 26.3445 113.388 25.262C112.158 24.1157 111.535 22.1717 111.535 19.4784V0.749169C111.535 0.335253 111.872 0 112.288 0H114.921C115.335 0 115.673 0.335253 115.673 0.749169V19.4784C115.673 20.3287 115.767 21.0292 115.952 21.5611C116.142 22.0199 116.418 22.3496 116.792 22.5575C117.201 22.7598 117.609 22.9002 117.994 22.9676C118.322 23.0257 118.747 23.0594 119.255 23.0707C119.665 23.08 119.999 23.4171 119.999 23.8236Z" fill="white"/>
<path d="M15.6137 0.363387C16.0989 -0.119827 16.8871 -0.119827 17.3742 0.363387L22.1405 5.10937C22.9249 5.89038 24.2641 5.33787 24.2641 4.23284V1.28112C24.2641 0.597502 24.8208 0.0412444 25.5074 0.0412444H27.9959C28.6824 0.0412444 29.241 0.595629 29.241 1.28112V4.10736C29.241 5.21238 30.5859 5.76489 31.3684 4.98014L35.1002 1.24179C35.5854 0.756701 36.3717 0.754828 36.8607 1.23617L38.625 2.98361C39.1122 3.46682 39.1141 4.2497 38.6307 4.73666L35.2224 8.151C34.4418 8.93201 34.9986 10.2637 36.1046 10.2637H39.1235C39.8514 10.2637 40.4401 10.8518 40.4401 11.5747V13.9814C40.4401 14.665 39.8834 15.2213 39.195 15.2213H35.2977C34.1898 15.2213 33.633 16.5567 34.4174 17.3358L39.4508 22.3477C39.9361 22.831 39.9361 23.6157 39.4508 24.1008L37.6902 25.852C37.2049 26.3352 36.4168 26.3352 35.9297 25.852L31.3627 21.3045C30.5784 20.5235 29.2392 21.076 29.2392 22.1811V38.762C29.2392 39.4457 28.6824 40.0019 27.994 40.0019H25.5055C24.819 40.0019 24.2603 39.4475 24.2603 38.762V22.1324C24.2603 21.0273 22.9173 20.4748 22.133 21.2596L4.41644 39.0111C3.93116 39.4962 3.14493 39.4981 2.65588 39.0168L0.891564 37.2693C0.404401 36.7861 0.40252 36.0032 0.885921 35.5163L19.0388 17.3339C19.8194 16.5529 19.2627 15.2213 18.1567 15.2213H1.24518C0.556757 15.2213 0 14.665 0 13.9814V11.5035C0 10.8199 0.556757 10.2637 1.24518 10.2637H6.68673H17.2726C18.3805 10.2637 18.9373 8.92826 18.1529 8.14912L13.8531 3.86762C13.3678 3.38441 13.3678 2.59966 13.8531 2.11457L15.6137 0.363387ZM24.2773 7.38497C23.7393 7.38497 23.2427 7.66966 22.9738 8.13414L20.4984 12.4025C20.2295 12.867 20.2295 13.4364 20.4984 13.9009L22.9738 18.1693C23.2427 18.6337 23.7393 18.9184 24.2773 18.9184H29.2279C29.7658 18.9184 30.2624 18.6319 30.5314 18.1693L33.0067 13.9009C33.2757 13.4364 33.2757 12.8651 33.0067 12.4025L30.5314 8.13414C30.2624 7.66966 29.7658 7.38497 29.2279 7.38497H24.2773Z" fill="white"/>
</g>
<defs>
<clipPath id="clip0_706_22489">
<rect width="120" height="40" fill="white"/>
</clipPath>
</defs>
</svg>
