<?xml version="1.0" encoding="UTF-8"?>
<svg id="Layer_1" data-name="Layer 1" xmlns="http://www.w3.org/2000/svg" viewBox="0 0 31.95 31.74">
  <defs>
    <style>
      .cls-1 {
        fill: #fff;
      }
    </style>
  </defs>
  <path class="cls-1" d="M12.34,.29c.38-.38,1.01-.38,1.39,0l3.77,3.77c.62,.62,1.68,.18,1.68-.7V1.02c0-.54,.44-.98,.98-.98h1.97c.54,0,.98,.44,.98,.98V3.26c0,.88,1.06,1.32,1.68,.69l2.95-2.97c.38-.38,1-.39,1.39,0l1.39,1.39c.38,.38,.39,1,0,1.39l-2.69,2.71c-.62,.62-.18,1.68,.7,1.68h2.39c.58,0,1.04,.47,1.04,1.04v1.91c0,.54-.44,.98-.98,.98h-3.08c-.88,0-1.32,1.06-.7,1.68l3.98,3.98c.38,.38,.38,1.01,0,1.39l-1.39,1.39c-.38,.38-1.01,.38-1.39,0l-3.61-3.61c-.62-.62-1.68-.18-1.68,.7v13.16c0,.54-.44,.98-.98,.98h-1.97c-.54,0-.98-.44-.98-.98v-13.19c0-.88-1.06-1.32-1.68-.69L3.49,30.95c-.38,.38-1,.39-1.39,0l-1.39-1.39c-.38-.38-.39-1,0-1.39L15.04,13.75c.62-.62,.18-1.68-.7-1.68H.98c-.54,0-.98-.44-.98-.98v-1.97c0-.54,.44-.98,.98-.98H13.65c.88,0,1.32-1.06,.7-1.68l-3.4-3.4c-.38-.38-.38-1.01,0-1.39l1.39-1.39Zm6.84,5.57c-.43,0-.82,.23-1.03,.59l-1.96,3.39c-.21,.37-.21,.82,0,1.19l1.96,3.39c.21,.37,.6,.59,1.03,.59h3.91c.43,0,.82-.23,1.03-.59l1.96-3.39c.21-.37,.21-.82,0-1.19l-1.96-3.39c-.21-.37-.6-.59-1.03-.59h-3.91Z"/>
</svg>