<?xml version="1.0" encoding="UTF-8"?>
<svg id="Layer_1" data-name="Layer 1" xmlns="http://www.w3.org/2000/svg" viewBox="0 0 637.98 213.57">
  <defs>
    <style>
      .cls-1 {
        fill: #fff;
      }
    </style>
  </defs>
  <g>
    <path class="cls-1" d="M325.4,126.4v13.6c0,2.21-1.79,4-4,4h-27.2c-5.45,0-9.86-.07-13.08-.2-3.27-.28-7.3-1.12-12.07-2.48l-.11-.03c-4.85-1.53-9.06-3.82-12.46-6.79-5.24-4.82-8.67-10.61-10.23-17.24-1.49-6.53-2.25-14.22-2.25-22.86V4c0-2.21,1.79-4,4-4h14.8c2.21,0,4,1.79,4,4V94c0,7.43,.82,13.3,2.45,17.44l.3,.68c1.56,3.32,3.81,5.77,6.88,7.49,3.31,1.85,7.61,2.79,12.77,2.79h32.2c2.21,0,4,1.8,4,4Z"/>
    <path class="cls-1" d="M422.08,48v92c0,2.21-1.79,4-4,4h-32.6c-15.35,0-26.11-2.27-32.92-6.95-6.09-4.11-10.06-9.11-11.79-14.88-1.52-5.66-2.29-13.04-2.29-21.97V48c0-2.21,1.8-4,4-4h13.6c2.21,0,4,1.79,4,4v52c0,2.32,.07,4.35,.2,6.04l.06,.56c.17,1.38,.6,3.21,1.26,5.42,.71,2.24,1.72,4.15,2.99,5.67,1.26,1.36,3.19,2.68,5.73,3.89,2.5,1.07,5.66,1.62,9.36,1.62h20.8V48c0-2.21,1.8-4,4-4h13.6c2.21,0,4,1.79,4,4Z"/>
    <path class="cls-1" d="M572.97,86v54c0,2.21-1.79,4-4,4h-13.6c-2.2,0-4-1.79-4-4v-54c0-9.69-2.73-15.85-8.34-18.83-1.39-.76-3.6-1.34-6.57-1.74-3.14-.42-7.14-.63-11.89-.63h-6.2v75.2c0,2.21-1.79,4-4,4h-13.6c-2.2,0-4-1.79-4-4V64.8h-31v75.2c0,2.21-1.79,4-4,4h-13.6c-2.2,0-4-1.79-4-4V48c0-2.21,1.8-4,4-4h86.2c9.81,0,17.77,1.92,23.67,5.71,6.12,3.84,10.17,8.92,12.04,15.09l.34,1.11c1.7,5.68,2.55,12.43,2.55,20.09Z"/>
    <path class="cls-1" d="M637.98,127.2v12.8c0,1.08-.43,2.09-1.2,2.85-.74,.73-1.73,1.13-2.77,1.13h-.07c-14.32-.25-24.79-3.32-31.11-9.1-6.54-6.12-9.85-16.5-9.85-30.88V4c0-2.21,1.79-4,4-4h14c2.2,0,4,1.79,4,4V104c0,4.54,.5,8.28,1.48,11.12,1.01,2.45,2.48,4.21,4.47,5.32,2.17,1.08,4.34,1.83,6.39,2.19,1.74,.31,4,.49,6.7,.55,2.18,.05,3.96,1.85,3.96,4.02Z"/>
  </g>
  <path class="cls-1" d="M83.01,1.94c2.58-2.58,6.77-2.58,9.36,0l25.34,25.34c4.17,4.17,11.29,1.22,11.29-4.68V6.84c0-3.65,2.96-6.62,6.61-6.62h13.23c3.65,0,6.62,2.96,6.62,6.62v15.09c0,5.9,7.15,8.85,11.31,4.66l19.84-19.96c2.58-2.59,6.76-2.6,9.36-.03l9.38,9.33c2.59,2.58,2.6,6.76,.03,9.36l-18.12,18.23c-4.15,4.17-1.19,11.28,4.69,11.28h16.05c3.87,0,7,3.14,7,7v12.85c0,3.65-2.96,6.62-6.62,6.62h-20.72c-5.89,0-8.85,7.13-4.68,11.29l26.76,26.76c2.58,2.58,2.58,6.77,0,9.36l-9.36,9.35c-2.58,2.58-6.77,2.58-9.36,0l-24.28-24.28c-4.17-4.17-11.29-1.22-11.29,4.68v88.53c0,3.65-2.96,6.62-6.62,6.62h-13.23c-3.65,0-6.62-2.96-6.62-6.62V118.17c0-5.9-7.14-8.85-11.31-4.66L23.48,208.29c-2.58,2.59-6.76,2.6-9.36,.03l-9.38-9.33c-2.59-2.58-2.6-6.76-.03-9.36L101.22,92.55c4.15-4.17,1.19-11.28-4.69-11.28H6.62C2.96,81.27,0,78.3,0,74.65v-13.23c0-3.65,2.96-6.62,6.62-6.62h28.93s0,0,0,0c0,0,0,0,0,0h56.28c5.89,0,8.85-7.13,4.68-11.29l-22.86-22.86c-2.58-2.58-2.58-6.77,0-9.36L83.01,1.94Zm46.06,37.49c-2.86,0-5.5,1.52-6.93,4l-13.16,22.79c-1.43,2.48-1.43,5.52,0,8l13.16,22.79c1.43,2.48,4.07,4,6.93,4h26.32c2.86,0,5.5-1.53,6.93-4l13.16-22.79c1.43-2.48,1.43-5.53,0-8l-13.16-22.79c-1.43-2.48-4.07-4-6.93-4h-26.32Z"/>
</svg>