<svg xmlns="http://www.w3.org/2000/svg" width="16" height="19" viewBox="0 0 16 19" fill="none">
<g clip-path="url(#clip0_297_2557)">
<path fill-rule="evenodd" clip-rule="evenodd" d="M1.43655 0.5C0.648484 0.5 0.00976562 1.139 0.00976562 1.92706V17.0698C0.00976562 17.8582 0.648484 18.4969 1.43655 18.4969H14.3105C15.0983 18.4969 15.7375 17.8582 15.7375 17.0698V6.21219L10.4211 0.5L1.43655 0.5Z" fill="#45B058"/>
<path d="M5.70997 12.6492C5.74541 12.6897 5.76566 12.7403 5.76566 12.796C5.76566 12.9023 5.67959 12.9985 5.56794 12.9985C5.51731 12.9985 5.46163 12.9783 5.42619 12.9327C5.22875 12.6948 4.89434 12.5426 4.58047 12.5426C3.84106 12.5426 3.27913 13.1099 3.27913 13.9151C3.27913 14.7153 3.84134 15.2873 4.58047 15.2873C4.89941 15.2873 5.21328 15.1506 5.42619 14.9023C5.46134 14.8618 5.51731 14.8367 5.56794 14.8367C5.68466 14.8367 5.76566 14.9377 5.76566 15.0443C5.76566 15.0949 5.74541 15.1456 5.70997 15.1861C5.44644 15.4594 5.087 15.6622 4.58075 15.6622C3.60847 15.6622 2.84375 14.9532 2.84375 13.9151C2.84375 12.877 3.60847 12.168 4.58075 12.168C5.087 12.1683 5.4515 12.3707 5.70997 12.6492ZM7.62303 15.6625C7.12184 15.6625 6.72669 15.4954 6.43813 15.242C6.39256 15.2015 6.37231 15.1458 6.37231 15.0902C6.37231 14.9886 6.44825 14.8772 6.56975 14.8772C6.61025 14.8772 6.65581 14.8874 6.69125 14.9178C6.92413 15.1256 7.24813 15.2873 7.63822 15.2873C8.24094 15.2873 8.43331 14.9633 8.43331 14.7048C8.43331 13.8338 6.43306 14.315 6.43306 13.1096C6.43306 12.5527 6.92919 12.1727 7.59266 12.1727C8.02803 12.1727 8.40294 12.3041 8.67631 12.5322C8.72188 12.5727 8.74719 12.6284 8.74719 12.6841C8.74719 12.7853 8.66113 12.8866 8.54947 12.8866C8.50897 12.8866 8.46341 12.8714 8.42797 12.841C8.17991 12.6385 7.87109 12.5474 7.562 12.5474C7.157 12.5474 6.86816 12.7651 6.86816 13.0843C6.86816 13.8439 8.86841 13.4083 8.86841 14.6694C8.86869 15.161 8.53456 15.6625 7.62303 15.6625ZM12.4026 12.4973L11.2329 15.404C11.1772 15.5407 11.0402 15.6318 10.8988 15.6318H10.8886C10.7418 15.6318 10.6051 15.5407 10.5492 15.404L9.38422 12.4973C9.37409 12.472 9.36903 12.4467 9.36903 12.4163C9.36903 12.3151 9.45988 12.1933 9.59684 12.1933C9.68291 12.1933 9.76391 12.2439 9.79934 12.33L10.8931 15.1402L11.9869 12.33C12.0173 12.249 12.0983 12.1933 12.1894 12.1933C12.321 12.1933 12.4172 12.2996 12.4172 12.4163C12.4175 12.4416 12.4124 12.472 12.4026 12.4973Z" fill="white"/>
<path fill-rule="evenodd" clip-rule="evenodd" d="M15.7504 6.22546V6.50671H12.1504C12.1504 6.50671 10.3751 6.15233 10.4269 4.62036C10.4269 4.62036 10.4854 6.22546 12.1152 6.22546H15.7504Z" fill="#349C42"/>
<path opacity="0.5" fill-rule="evenodd" clip-rule="evenodd" d="M10.4336 0.501709V4.59699C10.4336 5.06274 10.7441 6.22571 12.1503 6.22571H15.7503L10.4336 0.501709Z" fill="white"/>
</g>
<defs>
<clipPath id="clip0_297_2557">
<rect width="15.75" height="18" fill="white" transform="translate(0 0.5)"/>
</clipPath>
</defs>
</svg>