<svg width="25" height="25" viewBox="0 0 25 25" fill="none" xmlns="http://www.w3.org/2000/svg">
<path d="M19.7917 0H5.20833C2.33185 0 0 2.33185 0 5.20833V19.7917C0 22.6681 2.33185 25 5.20833 25H19.7917C22.6681 25 25 22.6681 25 19.7917V5.20833C25 2.33185 22.6681 0 19.7917 0Z" fill="white"/>
<g clip-path="url(#clip0_1220_11592)">
<path d="M7.55961 1.25632C7.34373 1.29024 7.08467 1.40006 6.902 1.53573C6.34902 1.94434 5.92058 2.81164 5.73957 3.89212C5.67148 4.30073 5.62499 4.86763 5.62499 5.30048C5.62499 5.81084 5.68643 6.46331 5.77444 6.91392C5.79437 7.01406 5.80433 7.1029 5.79603 7.10935C5.78939 7.11581 5.70802 7.18041 5.61668 7.25147C5.30449 7.49372 4.94745 7.86682 4.70167 8.20761C4.23006 8.85848 3.9245 9.59819 3.79663 10.3993C3.74681 10.7158 3.73353 11.3554 3.77338 11.6719C3.8614 12.4019 4.08724 13.0189 4.47417 13.5842L4.60038 13.7667L4.56384 13.8264C4.30478 14.2496 4.08392 14.8617 3.98096 15.4496C3.89959 15.9147 3.88963 16.0391 3.88963 16.6625C3.88963 17.2908 3.89793 17.4151 3.97432 17.8496C4.06565 18.3697 4.25164 18.9204 4.45922 19.287C4.52731 19.4065 4.69337 19.6552 4.7133 19.6682C4.71994 19.6714 4.70001 19.7311 4.66846 19.8006C4.42933 20.3093 4.22507 20.9861 4.14038 21.5562C4.0806 21.947 4.0723 22.073 4.0723 22.4849C4.0723 23.0097 4.10219 23.2649 4.21511 23.6832L4.23172 23.7446H5.65488L5.60838 23.659C5.32109 23.1422 5.29452 22.1828 5.54195 21.2251C5.65488 20.7826 5.78275 20.4579 6.02188 20.0106L6.16469 19.7392V19.5729C6.16469 19.4178 6.16137 19.4001 6.10989 19.2983C6.07003 19.2208 6.01689 19.1546 5.92224 19.0641C5.76116 18.9123 5.64491 18.7524 5.55192 18.5554C5.1434 17.6929 5.06369 16.4122 5.35098 15.3204C5.47055 14.8649 5.66816 14.4596 5.87574 14.2383C6.01689 14.0865 6.08996 13.9169 6.08996 13.7408C6.08996 13.5583 6.02354 13.4081 5.87408 13.2515C5.44564 12.8057 5.1816 12.263 5.08694 11.6316C4.95243 10.732 5.19654 9.7516 5.75119 8.97477C6.29422 8.21243 7.05644 7.72307 7.90836 7.59226C8.09932 7.56157 8.45636 7.56641 8.65563 7.60196C8.87319 7.63911 9.00935 7.62778 9.14886 7.56317C9.32156 7.48406 9.40792 7.38552 9.50921 7.15941C9.59887 6.95755 9.66863 6.84771 9.85628 6.61999C10.0821 6.34704 10.2997 6.1613 10.6484 5.9368C11.047 5.68324 11.5003 5.49913 11.952 5.41029C12.1164 5.37799 12.1928 5.37314 12.5 5.37314C12.8072 5.37314 12.8836 5.37799 13.048 5.41029C13.7106 5.54113 14.3682 5.87383 14.893 6.34541C15.0059 6.44716 15.2766 6.77341 15.3629 6.90909C15.3961 6.96237 15.4543 7.07545 15.4908 7.15941C15.5921 7.38552 15.6784 7.48406 15.8511 7.56317C15.9857 7.62617 16.1268 7.63911 16.3361 7.60517C16.6665 7.55026 16.9206 7.55511 17.2444 7.61971C18.3471 7.83613 19.3069 8.71958 19.7321 9.90344C20.1024 10.9419 19.9977 12.0289 19.4464 12.859C19.3534 12.9995 19.2604 13.1126 19.1259 13.2515C18.8353 13.5535 18.8353 13.9282 19.1243 14.2383C19.5992 14.7438 19.8965 15.9874 19.8068 17.084C19.747 17.8076 19.556 18.4553 19.2936 18.8219C19.2471 18.8865 19.1508 18.9963 19.0778 19.0641C18.9831 19.1546 18.93 19.2208 18.8901 19.2983C18.8386 19.4001 18.8353 19.4178 18.8353 19.5729V19.7392L18.9781 20.0106C19.2173 20.4579 19.3451 20.7826 19.458 21.2251C19.7022 22.1699 19.6806 23.1099 19.4016 23.6445C19.3783 23.6897 19.3584 23.7317 19.3584 23.7365C19.3584 23.7414 19.6756 23.7446 20.0642 23.7446H20.7683L20.7866 23.6752C20.7965 23.638 20.8131 23.5815 20.8214 23.5492C20.8397 23.4781 20.8762 23.2682 20.9061 23.0663C20.9344 22.8628 20.9344 22.1134 20.9061 21.8873C20.7999 21.0668 20.6221 20.4159 20.3315 19.8006C20.3 19.7311 20.2801 19.6714 20.2867 19.6682C20.295 19.6633 20.3415 19.5987 20.3913 19.526C20.7533 18.9931 20.9759 18.3228 21.0888 17.4377C21.1187 17.1939 21.1187 16.1457 21.0888 15.9115C21.0091 15.3075 20.9128 14.8972 20.7533 14.4822C20.6869 14.3094 20.5109 13.9443 20.4362 13.8264L20.3996 13.7667L20.5258 13.5842C20.9128 13.0189 21.1386 12.4019 21.2266 11.6719C21.2665 11.3554 21.2532 10.7158 21.2034 10.3993C21.0738 9.59655 20.7699 8.86009 20.2983 8.20761C20.0526 7.86682 19.6955 7.49372 19.3833 7.25147C19.292 7.18041 19.2106 7.11581 19.204 7.10935C19.1957 7.1029 19.2056 7.01406 19.2256 6.91392C19.4265 5.8948 19.4198 4.62376 19.2089 3.63048C19.0263 2.7648 18.6942 2.07678 18.2657 1.67947C17.9236 1.36292 17.5749 1.22725 17.1564 1.25309C16.1966 1.308 15.4227 2.38203 15.1171 4.07462C15.0673 4.34757 15.0242 4.66737 15.0242 4.75457C15.0242 4.78848 15.0175 4.81593 15.0092 4.81593C15.0009 4.81593 14.9362 4.78363 14.8664 4.74327C14.1258 4.31688 13.3021 4.08916 12.5 4.08916C11.6979 4.08916 10.8742 4.31688 10.1336 4.74327C10.0638 4.78363 9.9991 4.81593 9.99078 4.81593C9.98249 4.81593 9.97583 4.78848 9.97583 4.75457C9.97583 4.66413 9.93099 4.33466 9.88286 4.07462C9.60551 2.55484 8.9695 1.54865 8.12424 1.29508C8.008 1.26117 7.67753 1.23856 7.55961 1.25632ZM7.84194 2.57099C8.08106 2.75511 8.34676 3.28162 8.49954 3.87113C8.52777 3.97772 8.55765 4.10047 8.56597 4.14568C8.5726 4.18931 8.59086 4.28782 8.60582 4.36372C8.67059 4.70612 8.70047 5.07598 8.7038 5.52658L8.70545 5.97073L8.59086 6.13545L8.4763 6.3018H8.20892C7.89674 6.3018 7.58618 6.34059 7.28893 6.4181C7.18265 6.44394 7.07969 6.46979 7.05978 6.47464C7.02822 6.48109 7.02323 6.4714 7.00497 6.33895C6.90699 5.62024 6.91197 4.82402 7.01993 4.16183C7.13947 3.42375 7.41847 2.75511 7.6908 2.55807C7.75558 2.51123 7.7672 2.51285 7.84194 2.57099ZM17.3108 2.55969C17.4753 2.67759 17.6563 2.99091 17.7908 3.39145C18.0615 4.19252 18.1378 5.29239 17.995 6.33895C17.9768 6.4714 17.9718 6.48109 17.9402 6.47464C17.9203 6.46979 17.8173 6.44394 17.7111 6.4181C17.4138 6.34059 17.1033 6.3018 16.7911 6.3018H16.5237L16.4091 6.13545L16.2945 5.97073L16.2962 5.52658C16.2995 4.89993 16.3593 4.41057 16.5021 3.86628C16.6532 3.28162 16.9206 2.75511 17.1581 2.57099C17.2328 2.51285 17.2444 2.51123 17.3108 2.55969Z" fill="#0A0A0A"/>
<path d="M12.2422 10.6887C11.8818 10.7226 11.7838 10.7355 11.6111 10.7695C11.3305 10.826 10.9551 10.952 10.6944 11.0763C9.78774 11.5076 9.16335 12.2263 8.97237 13.058C8.93417 13.2228 8.92919 13.2777 8.92919 13.5555C8.92919 13.83 8.93417 13.8898 8.97072 14.0464C9.22479 15.1334 10.2544 15.9361 11.5862 16.0831C11.8751 16.1138 13.124 16.1138 13.4129 16.0831C14.4823 15.9652 15.4023 15.4015 15.8158 14.6101C15.9254 14.3985 15.9786 14.2613 16.0284 14.0464C16.0649 13.8898 16.0699 13.83 16.0699 13.5555C16.0699 13.2777 16.0649 13.2228 16.0267 13.058C15.7494 11.85 14.5438 10.8987 13.0658 10.7178C12.8732 10.6952 12.3684 10.6758 12.2422 10.6887ZM12.8632 11.5673C13.3564 11.619 13.853 11.7902 14.2515 12.0486C14.4657 12.1875 14.768 12.4782 14.8975 12.6688C15.0569 12.9046 15.1482 13.1452 15.1898 13.4376C15.208 13.5716 15.1981 13.6734 15.1482 13.8898C15.0702 14.2128 14.8277 14.5504 14.5006 14.7862C14.3478 14.8944 14.0307 15.051 13.8364 15.1124C13.4677 15.2271 13.2269 15.2481 12.3667 15.2416C11.8054 15.2368 11.7058 15.2319 11.5447 15.2029C10.995 15.1027 10.5599 14.8895 10.2444 14.5649C9.98867 14.3032 9.87243 14.0642 9.80933 13.6782C9.78111 13.4989 9.83423 13.2018 9.94218 12.9514C10.0734 12.6462 10.4121 12.2667 10.7476 12.0486C11.1362 11.7967 11.6476 11.6174 12.1176 11.5689C12.2986 11.5496 12.6822 11.5496 12.8632 11.5673Z" fill="#0A0A0A"/>
<path d="M11.8654 12.746C11.7392 12.8122 11.6512 12.9802 11.6778 13.1046C11.7077 13.2386 11.8289 13.3743 12.0182 13.4857C12.1195 13.5455 12.1262 13.5536 12.1311 13.6133C12.1344 13.6489 12.1212 13.7506 12.1029 13.8411C12.083 13.9299 12.068 14.0236 12.068 14.0494C12.0697 14.1189 12.1361 14.2319 12.2058 14.2868C12.2673 14.3353 12.2789 14.3369 12.4516 14.3417C12.6094 14.3466 12.6426 14.3433 12.7057 14.3143C12.8685 14.2367 12.91 14.0946 12.8502 13.8217C12.8004 13.594 12.8103 13.5584 12.9349 13.489C13.0661 13.4147 13.2056 13.2839 13.2471 13.195C13.3268 13.0254 13.2537 12.8332 13.0777 12.7444C13.0345 12.7234 12.9814 12.7137 12.9033 12.7137C12.7821 12.7137 12.7041 12.7412 12.5612 12.83L12.4799 12.8801L12.4284 12.8494C12.2175 12.7283 12.1793 12.7137 12.0514 12.7153C11.9601 12.7153 11.9103 12.7234 11.8654 12.746Z" fill="#0A0A0A"/>
<path d="M7.83304 10.871C7.53911 10.9615 7.3199 11.1714 7.20699 11.4702C7.15219 11.6124 7.12562 11.8369 7.14886 11.958C7.20366 12.2471 7.44777 12.5103 7.72511 12.583C8.07384 12.6718 8.33455 12.6137 8.56538 12.3908C8.69988 12.2632 8.77297 12.1518 8.84603 11.9709C8.89916 11.8433 8.90249 11.8207 8.90249 11.6398L8.90414 11.446L8.83441 11.3071C8.72313 11.0875 8.5222 10.9243 8.28972 10.8646C8.15852 10.8323 7.94763 10.8339 7.83304 10.871Z" fill="#0A0A0A"/>
<path d="M16.7027 10.8659C16.4752 10.9256 16.2726 11.0904 16.1647 11.3068L16.0949 11.4457L16.0966 11.6395C16.0966 11.8204 16.0999 11.843 16.1531 11.9706C16.2261 12.1515 16.2992 12.2629 16.4337 12.3905C16.6645 12.6134 16.9253 12.6715 17.274 12.5827C17.4749 12.531 17.6759 12.3663 17.7722 12.1741C17.8552 12.011 17.8751 11.8931 17.8486 11.7073C17.7871 11.2826 17.5314 10.9741 17.1511 10.8659C17.0398 10.8336 16.824 10.8336 16.7027 10.8659Z" fill="#0A0A0A"/>
</g>
<defs>
<clipPath id="clip0_1220_11592">
<rect width="17.5" height="22.5" fill="white" transform="translate(3.75 1.25)"/>
</clipPath>
</defs>
</svg>
