<svg width="20" height="20" viewBox="0 0 20 20" fill="none" xmlns="http://www.w3.org/2000/svg">
<path d="M15.8333 0H4.16667C1.86548 0 0 1.86548 0 4.16667V15.8333C0 18.1345 1.86548 20 4.16667 20H15.8333C18.1345 20 20 18.1345 20 15.8333V4.16667C20 1.86548 18.1345 0 15.8333 0Z" fill="#EFF6FF"/>
<g clip-path="url(#clip0_1220_13578)">
<path d="M6.04769 1.00506C5.87498 1.03219 5.66774 1.12005 5.5216 1.22858C5.07922 1.55547 4.73646 2.24931 4.59165 3.11369C4.53719 3.44058 4.49999 3.8941 4.49999 4.24038C4.49999 4.64867 4.54914 5.17065 4.61956 5.53113C4.6355 5.61125 4.64347 5.68232 4.63683 5.68748C4.63151 5.69265 4.56641 5.74433 4.49335 5.80117C4.24359 5.99498 3.95796 6.29345 3.76134 6.56609C3.38404 7.08678 3.1396 7.67855 3.0373 8.3194C2.99745 8.57265 2.98682 9.0843 3.01871 9.33754C3.08912 9.92155 3.26979 10.4151 3.57933 10.8674L3.6803 11.0134L3.65107 11.0612C3.44383 11.3997 3.26714 11.8894 3.18477 12.3597C3.11967 12.7318 3.1117 12.8313 3.1117 13.33C3.1117 13.8326 3.11834 13.9321 3.17945 14.2797C3.25252 14.6957 3.40131 15.1363 3.56738 15.4296C3.62185 15.5252 3.7547 15.7242 3.77064 15.7345C3.77595 15.7371 3.76001 15.7849 3.73477 15.8405C3.54346 16.2475 3.38006 16.7888 3.3123 17.245C3.26448 17.5576 3.25784 17.6584 3.25784 17.9879C3.25784 18.4078 3.28175 18.6119 3.37209 18.9466L3.38537 18.9957H4.5239L4.4867 18.9272C4.25687 18.5138 4.23562 17.7463 4.43356 16.9801C4.5239 16.626 4.6262 16.3664 4.8175 16.0084L4.93175 15.7914V15.6583C4.93175 15.5343 4.9291 15.5201 4.88791 15.4387C4.85603 15.3766 4.81352 15.3237 4.73779 15.2513C4.60893 15.1299 4.51593 15.0019 4.44153 14.8443C4.11472 14.1543 4.05095 13.1297 4.28079 12.2563C4.37644 11.8919 4.53453 11.5676 4.70059 11.3906C4.81352 11.2692 4.87197 11.1335 4.87197 10.9927C4.87197 10.8467 4.81883 10.7265 4.69926 10.6012C4.35651 10.2446 4.14528 9.81043 4.06955 9.30525C3.96194 8.58557 4.15723 7.80128 4.60095 7.17982C5.03538 6.56995 5.64515 6.17846 6.32669 6.07381C6.47946 6.04925 6.76509 6.05313 6.92451 6.08156C7.09855 6.11128 7.20748 6.10222 7.31909 6.05054C7.45724 5.98724 7.52633 5.90842 7.60737 5.72753C7.6791 5.56604 7.7349 5.47816 7.88503 5.29599C8.0657 5.07763 8.23973 4.92904 8.51871 4.74944C8.83757 4.54659 9.20024 4.3993 9.5616 4.32823C9.69311 4.30239 9.75422 4.29851 10 4.29851C10.2458 4.29851 10.3069 4.30239 10.4384 4.32823C10.9685 4.4329 11.4946 4.69906 11.9144 5.07633C12.0047 5.15773 12.2213 5.41873 12.2903 5.52728C12.3169 5.56989 12.3634 5.66036 12.3926 5.72753C12.4737 5.90842 12.5428 5.98724 12.6809 6.05054C12.7885 6.10093 12.9014 6.11128 13.0688 6.08414C13.3332 6.04021 13.5365 6.04409 13.7955 6.09577C14.6777 6.2689 15.4455 6.97566 15.7856 7.92275C16.0819 8.75353 15.9982 9.6231 15.5571 10.2872C15.4827 10.3996 15.4083 10.4901 15.3007 10.6012C15.0682 10.8428 15.0682 11.1426 15.2994 11.3906C15.6794 11.795 15.9172 12.7899 15.8454 13.6672C15.7976 14.2461 15.6448 14.7642 15.4349 15.0575C15.3977 15.1092 15.3207 15.197 15.2622 15.2513C15.1865 15.3237 15.144 15.3766 15.1121 15.4387C15.0709 15.5201 15.0682 15.5343 15.0682 15.6583V15.7914L15.1825 16.0084C15.3738 16.3664 15.4761 16.626 15.5664 16.9801C15.7617 17.7359 15.7445 18.4879 15.5213 18.9156C15.5027 18.9518 15.4867 18.9854 15.4867 18.9892C15.4867 18.9931 15.7405 18.9957 16.0513 18.9957H16.6146L16.6292 18.9401C16.6372 18.9104 16.6505 18.8652 16.6571 18.8393C16.6718 18.7825 16.701 18.6145 16.7249 18.453C16.7475 18.2902 16.7475 17.6907 16.7249 17.5098C16.6399 16.8534 16.4977 16.3328 16.2652 15.8405C16.24 15.7849 16.224 15.7371 16.2294 15.7345C16.236 15.7307 16.2732 15.679 16.313 15.6208C16.6027 15.1945 16.7807 14.6582 16.871 13.9502C16.8949 13.7551 16.8949 12.9165 16.871 12.7292C16.8073 12.246 16.7302 11.9178 16.6027 11.5857C16.5495 11.4475 16.4087 11.1555 16.3489 11.0612L16.3197 11.0134L16.4207 10.8674C16.7302 10.4151 16.9109 9.92155 16.9813 9.33754C17.0132 9.0843 17.0026 8.57265 16.9627 8.3194C16.8591 7.67724 16.616 7.08807 16.2387 6.56609C16.042 6.29345 15.7564 5.99498 15.5067 5.80117C15.4336 5.74433 15.3685 5.69265 15.3632 5.68748C15.3565 5.68232 15.3645 5.61125 15.3804 5.53113C15.5412 4.71584 15.5359 3.69901 15.3672 2.90438C15.221 2.21184 14.9553 1.66142 14.6126 1.34358C14.3389 1.09033 14.0599 0.9818 13.7251 1.00247C12.9573 1.0464 12.3382 1.90562 12.0937 3.2597C12.0539 3.47806 12.0193 3.73389 12.0193 3.80366C12.0193 3.83079 12.014 3.85275 12.0074 3.85275C12.0007 3.85275 11.9489 3.82691 11.8931 3.79462C11.3006 3.4535 10.6417 3.27133 10 3.27133C9.35834 3.27133 8.69939 3.4535 8.10688 3.79462C8.05107 3.82691 7.99928 3.85275 7.99263 3.85275C7.98599 3.85275 7.98066 3.83079 7.98066 3.80366C7.98066 3.7313 7.9448 3.46773 7.90628 3.2597C7.68441 2.04387 7.1756 1.23892 6.49939 1.03607C6.4064 1.00893 6.14202 0.990845 6.04769 1.00506ZM6.27355 2.05679C6.46485 2.20409 6.67741 2.6253 6.79963 3.0969C6.82222 3.18217 6.84612 3.28037 6.85277 3.31654C6.85808 3.35145 6.87269 3.43025 6.88465 3.49098C6.93647 3.7649 6.96037 4.06078 6.96304 4.42127L6.96436 4.77659L6.87269 4.90836L6.78104 5.04144H6.56714C6.31739 5.04144 6.06895 5.07247 5.83114 5.13448C5.74612 5.15516 5.66375 5.17583 5.64782 5.17971C5.62257 5.18487 5.61859 5.17712 5.60398 5.07116C5.52559 4.4962 5.52958 3.85922 5.61594 3.32946C5.71158 2.739 5.93478 2.20409 6.15264 2.04646C6.20446 2.00899 6.21376 2.01028 6.27355 2.05679ZM13.8487 2.04775C13.9802 2.14207 14.125 2.39273 14.2326 2.71316C14.4492 3.35402 14.5103 4.23391 14.396 5.07116C14.3814 5.17712 14.3774 5.18487 14.3522 5.17971C14.3363 5.17583 14.2539 5.15516 14.1689 5.13448C13.9311 5.07247 13.6826 5.04144 13.4329 5.04144H13.219L13.1273 4.90836L13.0356 4.77659L13.037 4.42127C13.0396 3.91994 13.0875 3.52845 13.2017 3.09303C13.3226 2.6253 13.5365 2.20409 13.7264 2.05679C13.7862 2.01028 13.7955 2.00899 13.8487 2.04775Z" fill="black"/>
<path d="M9.79373 8.55096C9.50543 8.57811 9.42706 8.58844 9.28888 8.61559C9.06436 8.6608 8.76412 8.76159 8.55555 8.86107C7.83019 9.20605 7.33068 9.78101 7.17789 10.4464C7.14734 10.5782 7.14335 10.6221 7.14335 10.8444C7.14335 11.064 7.14734 11.1118 7.17657 11.2372C7.37983 12.1067 8.20349 12.7489 9.26896 12.8665C9.50012 12.891 10.4992 12.891 10.7303 12.8665C11.5859 12.7721 12.3219 12.3212 12.6527 11.6881C12.7403 11.5188 12.7829 11.409 12.8227 11.2372C12.8519 11.1118 12.8559 11.064 12.8559 10.8444C12.8559 10.6221 12.8519 10.5782 12.8214 10.4464C12.5995 9.47997 11.635 8.71895 10.4527 8.57423C10.2986 8.55615 9.8947 8.54064 9.79373 8.55096ZM10.2906 9.25385C10.6852 9.2952 11.0824 9.43216 11.4012 9.63889C11.5726 9.75001 11.8144 9.98257 11.918 10.135C12.0455 10.3237 12.1186 10.5162 12.1518 10.7501C12.1664 10.8573 12.1585 10.9387 12.1186 11.1118C12.0562 11.3702 11.8622 11.6403 11.6005 11.8289C11.4783 11.9155 11.2245 12.0408 11.0691 12.0899C10.7742 12.1817 10.5815 12.1984 9.89335 12.1933C9.44433 12.1894 9.3646 12.1855 9.23574 12.1623C8.79602 12.0822 8.44795 11.9116 8.19554 11.6519C7.99093 11.4426 7.89794 11.2514 7.84747 10.9426C7.82488 10.7992 7.86738 10.5614 7.95374 10.3611C8.0587 10.1169 8.32971 9.81332 8.59807 9.63889C8.90893 9.43733 9.31812 9.29392 9.69408 9.25515C9.83889 9.23964 10.1458 9.23964 10.2906 9.25385Z" fill="black"/>
<path d="M9.49235 10.1968C9.39138 10.2498 9.32097 10.3842 9.34223 10.4837C9.36613 10.5909 9.46312 10.6994 9.61456 10.7886C9.69561 10.8364 9.70092 10.8429 9.70491 10.8907C9.70755 10.9191 9.69693 11.0005 9.68233 11.0728C9.66638 11.1439 9.65441 11.2188 9.65441 11.2395C9.65576 11.2951 9.7089 11.3855 9.76468 11.4295C9.81385 11.4682 9.82315 11.4695 9.96131 11.4734C10.0875 11.4773 10.1141 11.4747 10.1646 11.4514C10.2948 11.3894 10.328 11.2757 10.2801 11.0573C10.2403 10.8752 10.2483 10.8467 10.3479 10.7912C10.4528 10.7317 10.5645 10.6271 10.5977 10.556C10.6614 10.4204 10.603 10.2666 10.4621 10.1955C10.4276 10.1787 10.3851 10.171 10.3227 10.171C10.2257 10.171 10.1632 10.193 10.049 10.264L9.98389 10.3041L9.94271 10.2795C9.774 10.1826 9.74344 10.171 9.64113 10.1723C9.56807 10.1723 9.52822 10.1787 9.49235 10.1968Z" fill="black"/>
<path d="M6.26643 8.69681C6.03129 8.76917 5.85592 8.93714 5.76559 9.17617C5.72175 9.28989 5.70049 9.46949 5.71909 9.56638C5.76293 9.79766 5.95821 10.0083 6.18009 10.0664C6.45907 10.1375 6.66764 10.091 6.85231 9.91266C6.95991 9.81058 7.01838 9.72142 7.07683 9.57671C7.11933 9.47465 7.12199 9.45656 7.12199 9.31185L7.12331 9.15681L7.06753 9.04568C6.9785 8.86996 6.81776 8.73945 6.63177 8.69165C6.52682 8.66581 6.3581 8.66712 6.26643 8.69681Z" fill="black"/>
<path d="M13.3622 8.69272C13.1802 8.74052 13.0181 8.87229 12.9317 9.04544L12.876 9.15656L12.8773 9.31161C12.8773 9.45632 12.8799 9.47441 12.9224 9.57646C12.9809 9.72118 13.0394 9.81034 13.147 9.91242C13.3316 10.0907 13.5402 10.1372 13.8192 10.0662C13.9799 10.0248 14.1407 9.89303 14.2177 9.73927C14.2842 9.60878 14.3001 9.51446 14.2789 9.36586C14.2297 9.02605 14.0251 8.77928 13.7209 8.69272C13.6319 8.66687 13.4592 8.66687 13.3622 8.69272Z" fill="black"/>
</g>
<defs>
<clipPath id="clip0_1220_13578">
<rect width="14" height="18" fill="white" transform="translate(3 1)"/>
</clipPath>
</defs>
</svg>
