<svg width="25" height="25" viewBox="0 0 25 25" fill="none" xmlns="http://www.w3.org/2000/svg">
<g clip-path="url(#clip0_1220_11577)">
<path d="M18.75 0H6.25C2.79822 0 0 2.79822 0 6.25V18.75C0 22.2018 2.79822 25 6.25 25H18.75C22.2018 25 25 22.2018 25 18.75V6.25C25 2.79822 22.2018 0 18.75 0Z" fill="white"/>
<path d="M20.5995 12.0791C20.7857 12.4946 20.9039 12.9389 20.9523 13.392C20.9988 13.8451 20.9756 14.3036 20.8788 14.7496C20.7839 15.1956 20.6192 15.6236 20.3899 16.0177C20.2395 16.281 20.0621 16.5281 19.8579 16.7556C19.6555 16.9814 19.4299 17.1855 19.1845 17.3646C18.9373 17.5438 18.674 17.6942 18.3946 17.8177C18.117 17.9396 17.8269 18.0327 17.5295 18.0935C17.3898 18.527 17.1821 18.9372 16.9133 19.3061C16.6464 19.6751 16.3223 19.9993 15.9533 20.2661C15.5844 20.5348 15.176 20.7426 14.7426 20.8823C14.3092 21.0239 13.8559 21.0936 13.3993 21.0936C13.0965 21.0954 12.7921 21.0632 12.4948 21.0023C12.1993 20.9396 11.909 20.8447 11.6314 20.7211C11.3538 20.5975 11.0905 20.4435 10.8451 20.2644C10.6015 20.0853 10.3759 19.8793 10.1753 19.6519C9.7275 19.7485 9.26897 19.7719 8.81583 19.7253C8.36268 19.6769 7.9185 19.5586 7.50116 19.3724C7.08563 19.1879 6.70055 18.9372 6.36203 18.6309C6.02352 18.3246 5.73515 17.9665 5.50768 17.5724C5.35543 17.3091 5.23006 17.0315 5.13513 16.7431C5.0402 16.4547 4.97752 16.1574 4.94528 15.8547C4.91304 15.5539 4.91483 15.2493 4.94707 14.9467C4.97931 14.6457 5.04558 14.3484 5.14051 14.06C4.83602 13.7216 4.58527 13.3365 4.399 12.9209C4.21451 12.5035 4.09451 12.0611 4.04794 11.608C3.99958 11.1549 4.02465 10.6964 4.11958 10.2504C4.21451 9.8044 4.37929 9.37632 4.60855 8.98228C4.75901 8.71899 4.93632 8.47003 5.13871 8.24436C5.34111 8.01868 5.56858 7.81449 5.81395 7.63539C6.05934 7.45627 6.32442 7.30403 6.60204 7.18224C6.88144 7.05865 7.17161 6.9673 7.46892 6.90641C7.60863 6.47117 7.8164 6.0628 8.08328 5.69384C8.35193 5.32488 8.67612 5.00069 9.04509 4.73202C9.41406 4.46515 9.82242 4.25738 10.2559 4.11589C10.6894 3.97618 11.1425 3.90453 11.5992 3.90632C11.9019 3.90453 12.2063 3.93498 12.5037 3.99767C12.801 4.06036 13.0911 4.1535 13.3688 4.27708C13.6464 4.40246 13.9097 4.5547 14.1551 4.73381C14.4005 4.91471 14.6261 5.1189 14.8268 5.34637C15.2727 5.25144 15.7312 5.22816 16.1844 5.27472C16.6375 5.32129 17.08 5.44129 17.4973 5.62577C17.9128 5.81205 18.2979 6.06101 18.6364 6.36729C18.9749 6.67177 19.2633 7.0282 19.4907 7.42403C19.643 7.68553 19.7683 7.96316 19.8633 8.25331C19.9582 8.54168 20.0227 8.839 20.0531 9.14169C20.0854 9.44439 20.0854 9.74888 20.0513 10.0516C20.0192 10.3543 19.9528 10.6516 19.8579 10.94C20.1642 11.2784 20.4131 11.6618 20.5995 12.0791ZM14.6315 19.7253C15.022 19.5641 15.3767 19.3258 15.6757 19.0268C15.9749 18.7276 16.213 18.373 16.3743 17.9807C16.5354 17.5903 16.6197 17.1711 16.6197 16.7484V12.7544C16.6184 12.7507 16.6173 12.7466 16.616 12.7418C16.6149 12.7382 16.613 12.7346 16.6107 12.731C16.6083 12.7275 16.6053 12.7245 16.6018 12.7221C16.5981 12.7185 16.5946 12.7161 16.5909 12.7149L15.1455 11.8803V16.7055C15.1455 16.7539 15.1384 16.804 15.1258 16.8505C15.1133 16.899 15.0954 16.9436 15.0703 16.9867C15.0453 17.0297 15.0165 17.0691 14.9808 17.1031C14.9459 17.1378 14.9069 17.1679 14.8644 17.1927L11.4415 19.1682C11.4129 19.1861 11.3646 19.2113 11.3395 19.2255C11.481 19.3455 11.635 19.4513 11.7962 19.5444C11.9592 19.6375 12.1276 19.7164 12.3031 19.7808C12.4786 19.8434 12.6596 19.8919 12.8422 19.9241C13.0267 19.9564 13.213 19.9724 13.3993 19.9724C13.822 19.9724 14.241 19.8882 14.6315 19.7253ZM6.48025 17.0135C6.69338 17.3807 6.97459 17.6996 7.30952 17.9575C7.64625 18.2154 8.02775 18.4034 8.43612 18.5127C8.84449 18.622 9.27077 18.6506 9.68988 18.5951C10.109 18.5396 10.512 18.4034 10.8792 18.1921L14.3396 16.195L14.3485 16.186C14.3509 16.1836 14.3527 16.1801 14.3538 16.1753C14.3562 16.1718 14.3581 16.1681 14.3593 16.1646V14.4809L10.1824 16.8971C10.1394 16.9222 10.0947 16.9401 10.0481 16.9545C9.99975 16.967 9.95138 16.9724 9.90124 16.9724C9.85287 16.9724 9.80452 16.967 9.75615 16.9545C9.70959 16.9401 9.66302 16.9222 9.62003 16.8971L6.19725 14.9198C6.1668 14.9019 6.12203 14.875 6.09695 14.8589C6.06472 15.0433 6.04859 15.2296 6.04859 15.4159C6.04859 15.6022 6.0665 15.7884 6.09875 15.9729C6.13098 16.1556 6.18113 16.3366 6.24382 16.5121C6.3083 16.6876 6.38711 16.8559 6.48025 17.0171V17.0135ZM5.58111 9.54469C5.36977 9.91187 5.23364 10.3166 5.17812 10.7357C5.12259 11.1549 5.15126 11.5794 5.26051 11.9896C5.36977 12.3979 5.55783 12.7794 5.81575 13.1161C6.07366 13.451 6.39427 13.7323 6.75965 13.9436L10.2183 15.9425C10.2218 15.9436 10.226 15.9449 10.2308 15.946H10.2433C10.2481 15.946 10.2523 15.9449 10.2559 15.9425C10.2595 15.9413 10.263 15.9395 10.2666 15.9371L11.7174 15.0989L7.54057 12.688C7.49937 12.663 7.45998 12.6325 7.42415 12.5985C7.38944 12.5636 7.35935 12.5246 7.3346 12.4821C7.31131 12.4391 7.29161 12.3943 7.27907 12.3459C7.26654 12.2994 7.25937 12.251 7.26116 12.2008V8.1333C7.08563 8.19778 6.91548 8.27659 6.75428 8.36973C6.59308 8.46466 6.44084 8.57213 6.29755 8.69213C6.15606 8.81214 6.02352 8.94467 5.90352 9.08796C5.78351 9.22946 5.67783 9.38349 5.58469 9.54469H5.58111ZM17.4614 12.3101C17.5045 12.3352 17.5438 12.3639 17.5797 12.3997C17.6136 12.4338 17.6442 12.4731 17.6693 12.5161C17.6925 12.5591 17.7122 12.6056 17.7248 12.6522C17.7355 12.7006 17.7426 12.749 17.7408 12.7991V16.8667C18.3158 16.6553 18.8173 16.2846 19.188 15.7974C19.5606 15.3102 19.7845 14.7281 19.8364 14.1192C19.8883 13.5102 19.7665 12.8976 19.4836 12.3549C19.2006 11.8122 18.7689 11.3608 18.2387 11.0564L14.7802 9.05751C14.7765 9.05631 14.7724 9.05513 14.7676 9.05393H14.7551C14.7515 9.05513 14.7474 9.05631 14.7426 9.05751C14.7389 9.05871 14.7354 9.0605 14.7319 9.06289L13.2882 9.89753L17.465 12.3101H17.4614ZM18.9033 10.1429H18.9014V10.1447L18.9033 10.1429ZM18.9014 10.1411C19.0054 9.53931 18.9355 8.91959 18.699 8.35541C18.4645 7.79121 18.0722 7.30582 17.5707 6.95477C17.0692 6.6055 16.4781 6.4049 15.8674 6.37803C15.2548 6.35296 14.6495 6.50162 14.1193 6.80611L10.6606 8.80318C10.6571 8.80556 10.654 8.80855 10.6517 8.81214L10.6446 8.82288C10.6433 8.82646 10.6422 8.83064 10.6409 8.83542C10.6398 8.839 10.6392 8.84318 10.6392 8.84795V10.5173L14.816 8.10465C14.8589 8.07957 14.9055 8.06167 14.9521 8.04734C15.0005 8.03479 15.0488 8.02943 15.0972 8.02943C15.1474 8.02943 15.1957 8.03479 15.244 8.04734C15.2906 8.06167 15.3354 8.07957 15.3784 8.10465L18.8011 10.082C18.8317 10.0999 18.8764 10.125 18.9014 10.1411ZM9.85108 8.29272C9.85108 8.24436 9.85825 8.196 9.87079 8.14764C9.88332 8.10106 9.90124 8.0545 9.92631 8.01151C9.95138 7.97031 9.98004 7.93092 10.0159 7.8951C10.0499 7.86106 10.0893 7.83062 10.1323 7.80732L13.5551 5.83175C13.5873 5.81205 13.6321 5.78697 13.6572 5.77444C13.1879 5.38219 12.6148 5.13144 12.0076 5.05442C11.4004 4.97561 10.7843 5.07232 10.2308 5.33203C9.67556 5.59174 9.20629 6.00549 8.87852 6.52132C8.55075 7.03895 8.37701 7.63718 8.37701 8.24973V12.2439C8.3782 12.2486 8.3794 12.2528 8.38059 12.2564C8.38179 12.26 8.38358 12.2635 8.38597 12.2672C8.38835 12.2707 8.39134 12.2743 8.39492 12.2779C8.39731 12.2803 8.40089 12.2827 8.40567 12.2851L9.85108 13.1197V8.29272ZM10.6356 13.571L12.4965 14.6457L14.3575 13.571V11.4235L12.4983 10.3489L10.6374 11.4235L10.6356 13.571Z" fill="#0A0A0A"/>
</g>
<defs>
<clipPath id="clip0_1220_11577">
<rect width="25" height="25" fill="white"/>
</clipPath>
</defs>
</svg>
